<?xml version="1.0" encoding="utf-8"?>
<!-- Generator: Adobe Illustrator 23.0.1, SVG Export Plug-In . SVG Version: 6.00 Build 0)  -->
<svg version="1.1" id="Layer_1" xmlns="http://www.w3.org/2000/svg" xmlns:xlink="http://www.w3.org/1999/xlink" x="0px" y="0px"
	 viewBox="0 0 500 500" style="enable-background:new 0 0 500 500;" xml:space="preserve">
<g>
	<path d="M150.2,84.4v279.2H140c-3.9,0-10.1,0.5-18.6,1.6c-7.2,1.1-15.7,1.6-25.5,1.6V362c10.1-1.2,18.4-6.8,25-16.7
		s9.9-29,9.9-57.2V151.9c0-38.5-11.7-60.5-34.9-65.9v-4.8C106,82.4,124.1,83.5,150.2,84.4z M174.3,363.6h-6.8V84.4
		c9.4,0,19.5-0.4,30.2-1.3c12.3-1.2,22.3-1.8,30-1.8c21.6,0,37.6,7.4,48.1,22.3c10.5,14.7,15.8,32.8,15.8,54.3
		c0,36.6-13.8,59.9-41.3,70.2c13.7,2.1,25.2,6.7,34.5,13.8c9.9,7.6,24.9,22.8,45.1,45.6c30.7,35,55.7,52.4,75,52.4
		c3.9,0,7.9-1.5,12-4.5l0.9,4.8c-6.3,9.2-15,13.8-26.2,13.8c-12,0-24.5-5-37.5-15.1c-12.3-9.5-30.6-28.3-55-56.1
		c-29.3-33.9-57.7-50.9-85.4-50.9c17.1,6,40.4,26.2,69.6,60.6c20.6,24,37.1,41.5,49.6,52.4c12.6,11,24.6,16.4,36.1,16.4v2.4
		c-5.4,2.1-10.6,3.2-15.8,3.2c-15.3,0-28.5-4.3-39.6-13c-6-4.8-13.6-12-22.8-21.9c-9.2-9.8-20.3-22.5-33.2-38
		c-18.9-22.6-32.9-38-42-46.1c-9.8-8.3-19.3-14.1-28.6-17.5v62.8c0,42.2,11.3,65.2,34,68.9v4.8C202.1,364.6,186.5,363.6,174.3,363.6
		z M187,157.2v57.5c9.3,2.6,19.4,4,30.2,4c35.4,0,53.1-20.7,53.1-62c0-38.7-17.5-58-52.6-58c-11.3,0-20.1,2.6-26.4,7.7
		C188.4,113.4,187,130.4,187,157.2z M293.9,214.4c10.2-18.2,15.3-38.2,15.3-60.1c0-19.9-5.9-40-17.7-60.1
		c27.1,12.9,40.6,33.2,40.6,60.9C332.1,183.2,319.4,203,293.9,214.4z"/>
</g>
</svg>
